<svg version="1.1" id="Layer_1" xmlns="http://www.w3.org/2000/svg" xmlns:xlink="http://www.w3.org/1999/xlink" x="0px" y="0px"
	 width="100%" viewBox="0 0 624 512" enable-background="new 0 0 624 512" xml:space="preserve">
<path fill="#000000" opacity="1.000000" stroke="none" 
	d="
M387.572754,61.445717 
	C382.430420,56.408989 377.038025,54.571060 370.583984,58.069653 
	C368.717041,59.081665 367.125519,58.885895 366.143341,56.620621 
	C365.124420,54.270706 366.298615,53.438786 368.252594,52.530495 
	C375.271057,49.267971 381.826508,48.800747 388.245880,54.164562 
	C403.231964,66.686523 417.992065,79.399719 428.622467,96.088821 
	C435.425995,106.769936 438.507019,118.918114 442.267822,130.820557 
	C444.656830,138.381516 445.432220,145.985138 445.388031,153.881195 
	C445.207092,186.207016 445.202179,218.535095 445.414490,250.860489 
	C445.447845,255.939636 443.959747,257.339844 438.920929,257.330231 
	C361.936768,257.183319 284.952209,257.231262 207.967758,257.223175 
	C200.849533,257.222443 200.825302,257.189148 200.821045,249.964111 
	C200.800568,215.304520 200.855835,180.644638 200.699509,145.985703 
	C200.681458,141.983353 201.874207,139.887802 205.560684,138.018295 
	C237.051666,122.048553 268.412323,105.821823 299.811035,89.670128 
	C300.255157,89.441666 300.675537,89.164955 301.126556,88.952324 
	C303.034943,88.052742 304.919037,87.318817 306.170959,89.911278 
	C307.434662,92.528137 305.626862,93.465729 303.756470,94.431831 
	C292.217010,100.392303 280.692474,106.381569 269.152496,112.341080 
	C253.765289,120.287422 238.364212,128.206970 222.982925,136.164749 
	C221.522491,136.920334 220.160324,137.865814 217.845718,139.275375 
	C291.775757,139.275375 364.693054,139.275375 437.990723,139.275375 
	C433.099518,117.040001 425.506958,96.758560 408.847778,80.905807 
	C401.968903,74.359917 395.165741,67.742508 387.572754,61.445717 
M389.499878,214.682831 
	C402.664001,214.683487 415.828827,214.767166 428.992065,214.659210 
	C440.054596,214.568497 438.765381,216.638733 439.082123,203.899353 
	C439.146637,201.303329 438.278198,200.204865 435.659027,200.350769 
	C433.499512,200.471054 431.284790,200.635590 429.172119,200.296799 
	C426.599762,199.884293 422.021118,202.165863 422.174469,197.363907 
	C422.321411,192.763382 426.808685,195.151230 429.386780,194.717468 
	C432.433777,194.204788 435.653015,195.193161 439.004547,193.939499 
	C439.004547,187.875595 439.000946,181.905655 439.005463,175.935699 
	C439.011353,168.202805 439.014130,168.201401 431.395752,168.201675 
	C363.736633,168.204056 296.077454,168.229782 228.418488,168.125824 
	C225.725723,168.121689 221.052887,170.025864 221.130737,164.848679 
	C221.201614,160.133987 225.614700,161.861420 228.202072,161.857681 
	C295.027802,161.761322 361.853760,161.814178 428.679565,161.754364 
	C439.767059,161.744431 438.780579,163.738983 439.101318,151.278610 
	C439.217194,146.776642 437.850128,145.259201 433.149750,145.268097 
	C359.658203,145.407425 286.166260,145.405304 212.674652,145.276688 
	C208.070038,145.268631 207.072388,146.969437 207.144623,151.138107 
	C207.358261,163.466370 207.222672,175.800659 207.229538,188.132584 
	C207.233154,194.639572 207.238678,194.648972 213.897705,194.649338 
	C275.057556,194.652695 336.217438,194.631332 397.377136,194.732986 
	C399.758759,194.736954 403.996002,192.972336 403.900940,197.576599 
	C403.808655,202.044907 399.642059,200.292465 397.229706,200.296387 
	C336.569946,200.394836 275.910034,200.375198 215.250122,200.376160 
	C207.156693,200.376297 207.451141,200.387222 207.127899,208.690704 
	C206.933578,213.682419 208.784164,214.813751 213.449814,214.770706 
	C236.112030,214.561661 258.777222,214.675690 281.441376,214.679214 
	C282.940948,214.679443 284.440613,214.706833 285.940063,214.731232 
	C287.876862,214.762741 289.100037,215.507187 289.115723,217.679764 
	C289.131348,219.842682 287.820862,220.639359 285.986664,220.798218 
	C284.164673,220.956024 282.325867,220.960999 280.494385,220.961746 
	C257.996887,220.970993 235.498886,221.045303 213.002380,220.897308 
	C208.766602,220.869446 206.919678,222.071365 207.167923,226.570236 
	C207.479630,232.219101 207.245956,237.898148 207.243988,243.564178 
	C207.241470,250.794128 207.239899,250.798569 214.261810,250.798264 
	C266.256012,250.795975 318.250214,250.788727 370.244415,250.789688 
	C391.242065,250.790070 412.240601,250.708206 433.236633,250.897781 
	C437.575562,250.936966 439.214813,249.589752 439.039246,245.194885 
	C438.780029,238.706696 438.897644,232.196884 439.056641,225.701218 
	C439.142303,222.202118 438.203979,220.769485 434.245514,220.792389 
	C401.583801,220.981201 368.920624,220.925858 336.257904,220.924545 
	C334.766876,220.924484 333.261322,220.829544 331.788696,220.606232 
	C330.148224,220.357452 329.764771,219.112473 329.787354,217.636505 
	C329.810699,216.111511 330.389832,215.009903 332.014832,214.855316 
	C333.503845,214.713654 335.008087,214.687439 336.505646,214.686600 
	C353.837036,214.677002 371.168457,214.681900 389.499878,214.682831 
z"/>
<path fill="#000000" opacity="1.000000" stroke="none" 
	d="
M229.657166,289.301270 
	C229.650421,288.684998 229.655151,288.518005 229.644043,288.352051 
	C228.862991,276.686676 229.736389,275.810974 241.462570,276.373169 
	C242.272903,276.412018 243.095657,276.171631 243.913803,276.070557 
	C250.465195,275.261108 253.274826,277.590027 253.308044,284.289032 
	C253.385651,299.936310 253.361008,315.584595 253.280869,331.231964 
	C253.252472,336.777557 251.604935,338.236694 246.036163,338.217010 
	C244.371292,338.211121 242.705231,338.162201 241.041733,338.207489 
	C226.457687,338.604462 226.314163,337.138763 219.633606,324.231232 
	C217.908295,320.897675 216.300095,317.559570 213.169724,314.659210 
	C213.169724,320.252350 213.059677,325.848328 213.203506,331.437775 
	C213.324905,336.155487 210.797150,338.012939 206.517792,338.299194 
	C206.185760,338.321411 205.852127,338.319092 205.519379,338.331543 
	C189.643845,338.925903 189.655289,338.925964 189.683914,323.212158 
	C189.707260,310.391510 189.636215,297.570374 189.729538,284.750336 
	C189.780914,277.692902 191.254608,276.358276 198.295609,276.341553 
	C198.791931,276.340363 199.331116,276.598358 199.778809,276.475372 
	C213.354218,272.746399 219.674698,280.678833 224.332993,291.548248 
	C225.539597,294.363708 226.613419,297.360168 229.661240,300.287872 
	C229.661240,296.270447 229.661240,293.010742 229.657166,289.301270 
z"/>
<path fill="#000000" opacity="1.000000" stroke="none" 
	d="
M129.404602,337.903015 
	C106.729355,331.946991 97.341347,307.769745 110.459976,288.875031 
	C116.652565,279.955902 125.793144,275.162109 136.868317,275.371185 
	C142.289917,275.473572 147.736588,275.547485 153.083206,277.539490 
	C166.009979,282.355621 174.249207,295.086975 173.399384,309.858459 
	C172.653793,322.818024 162.918472,334.154236 150.389252,337.522339 
	C143.457596,339.385742 136.719742,340.068420 129.404602,337.903015 
M147.586166,309.799408 
	C147.636749,308.471771 147.803345,307.136475 147.716766,305.817871 
	C147.427063,301.405212 143.540710,297.532104 139.374252,297.401306 
	C135.068268,297.266083 131.113968,300.707672 130.410919,305.202423 
	C129.658203,310.014526 132.010895,315.323486 135.976715,316.355774 
	C141.109177,317.691803 144.663605,317.173859 147.586166,309.799408 
z"/>
<path fill="#000000" opacity="1.000000" stroke="none" 
	d="
M585.276978,338.807983 
	C572.060852,340.413330 560.967834,337.166992 551.694031,327.785980 
	C539.950195,315.906403 543.317566,290.566345 556.571716,282.258484 
	C571.801758,272.712128 591.502686,272.752014 602.996704,284.172729 
	C611.442261,292.564453 615.350647,303.030762 611.968323,315.129730 
	C608.718811,326.753693 601.435730,334.497253 589.515198,337.515259 
	C588.226868,337.841431 586.966492,338.278137 585.276978,338.807983 
M573.415039,315.193420 
	C580.067017,318.608643 585.328430,316.442078 587.338623,309.459808 
	C588.661072,304.865936 585.890991,299.785583 581.002869,297.839966 
	C577.304810,296.368073 572.218750,298.430939 570.818604,302.666046 
	C569.451294,306.801941 569.147705,311.202698 573.415039,315.193420 
z"/>
<path fill="#000000" opacity="1.000000" stroke="none" 
	d="
M58.930897,274.649292 
	C65.973465,274.623901 72.308983,275.574677 78.237862,278.596375 
	C89.516594,284.344696 90.404137,299.425354 77.751129,305.228424 
	C83.162117,307.829803 87.786751,310.439911 89.161331,316.854767 
	C91.364975,327.138794 85.926346,333.692505 77.439095,336.370758 
	C68.154869,339.300507 58.481190,339.542450 48.807812,339.017548 
	C46.006607,338.865570 43.214096,338.551483 40.412727,338.404724 
	C35.681095,338.156799 33.698322,335.657410 33.631165,330.987549 
	C33.426937,316.785034 32.878647,302.585327 33.577225,288.382111 
	C33.601761,287.883240 33.659603,287.380402 33.624096,286.885010 
	C32.738602,274.529938 33.643532,276.094879 45.964474,274.953430 
	C50.097591,274.570557 54.281448,274.735382 58.930897,274.649292 
M57.312855,319.233246 
	C57.895996,321.921814 59.838455,322.056549 61.870968,321.389893 
	C63.849827,320.740814 63.808258,318.922394 63.512363,317.254333 
	C63.221062,315.612152 62.068962,314.615784 60.447632,314.550842 
	C57.764805,314.443329 57.281727,316.346985 57.312855,319.233246 
M57.739193,296.772308 
	C59.153782,298.267242 60.639263,298.074219 62.024879,296.810791 
	C62.804264,296.100098 62.911240,294.994812 62.619858,294.060944 
	C61.951084,291.917511 60.204632,291.759979 58.431030,291.898590 
	C56.982624,293.159851 57.383442,294.666748 57.739193,296.772308 
z"/>
<path fill="#000000" opacity="1.000000" stroke="none" 
	d="
M370.960846,338.311401 
	C361.147156,338.216095 351.827515,338.071411 342.507538,338.039673 
	C338.133057,338.024750 335.598236,336.448975 335.626312,331.617279 
	C335.722809,315.018311 335.698517,298.418549 335.685211,281.819092 
	C335.682404,278.316071 337.505005,276.411560 340.823822,276.378632 
	C353.191986,276.255737 365.562500,276.243530 377.930847,276.345276 
	C381.114227,276.371429 383.049072,277.930328 383.311798,281.561096 
	C384.194550,293.761047 383.000610,294.972870 370.681305,294.800293 
	C367.219574,294.751801 363.183624,292.677460 359.590424,297.093140 
	C364.618134,297.544250 368.749969,299.022705 373.307251,298.144409 
	C379.403412,296.969482 382.213806,300.009277 381.807251,306.194733 
	C380.975739,318.845276 379.696930,315.862183 370.202026,316.406708 
	C366.995880,316.590576 363.325806,314.999359 360.518738,317.985992 
	C361.558960,320.420502 363.446320,319.625275 364.967163,319.646576 
	C369.792053,319.714142 374.618683,319.648224 379.444489,319.666718 
	C383.073578,319.680634 384.982513,321.545868 385.173187,325.160431 
	C385.252136,326.656647 385.329559,328.154846 385.337677,329.652527 
	C385.375641,336.657806 383.841888,338.232849 376.950684,338.299469 
	C375.118866,338.317169 373.286743,338.306152 370.960846,338.311401 
z"/>
<path fill="#000000" opacity="1.000000" stroke="none" 
	d="
M426.730865,276.441559 
	C437.115021,273.589874 446.488861,274.522858 455.122131,280.732269 
	C457.406494,282.375244 458.868622,284.307190 458.182343,286.984985 
	C456.964142,291.738312 453.863098,295.531372 450.898438,299.302856 
	C449.899078,300.574127 448.193756,300.367645 446.696716,299.816406 
	C444.822388,299.126190 442.995789,298.215881 441.062714,297.794342 
	C436.931427,296.893341 432.673920,297.285522 430.318604,301.030121 
	C428.340240,304.175385 427.083527,308.229340 429.468475,311.855835 
	C432.077271,315.822662 436.033112,317.352386 440.766174,316.410156 
	C441.896118,316.185181 442.998779,315.723236 444.053650,315.238861 
	C447.878693,313.482330 450.897797,314.509338 453.080231,317.944733 
	C454.949127,320.886536 456.697662,323.912018 458.354950,326.978577 
	C459.561279,329.210693 459.014557,331.126282 456.856567,332.584137 
	C445.717834,340.108856 432.142212,342.432861 418.243744,334.756226 
	C407.251129,328.684509 401.246735,315.102875 403.372345,302.398499 
	C405.629730,288.906311 413.009827,280.133545 426.730865,276.441559 
z"/>
<path fill="#000000" opacity="1.000000" stroke="none" 
	d="
M271.502136,301.532410 
	C271.366333,295.720459 271.324829,290.291931 271.160370,284.867126 
	C270.967041,278.489105 272.694092,276.632141 279.103271,275.971283 
	C285.588745,275.302582 291.998718,276.495850 298.452789,276.464233 
	C300.944458,276.451996 303.444550,276.494476 305.927002,276.688812 
	C309.251587,276.949036 313.357025,274.451019 315.732605,278.047180 
	C318.512848,282.255920 317.740845,287.351135 317.135468,292.104218 
	C316.785065,294.855255 314.796875,296.354950 311.825409,296.326965 
	C307.676300,296.287872 303.525665,296.327606 299.376678,296.394135 
	C297.326874,296.427032 294.887390,296.633453 295.021790,299.270782 
	C295.129150,301.377350 296.972595,302.665283 299.298401,302.617340 
	C301.623413,302.569397 303.950531,302.338867 306.270844,302.402618 
	C311.300537,302.540710 313.202423,304.468933 313.236969,309.422211 
	C313.250854,311.412537 313.083466,313.411804 312.876556,315.394287 
	C312.481110,319.183472 310.293579,320.938049 306.509613,320.889038 
	C304.860199,320.867645 303.208099,321.035889 301.557526,321.123901 
	C295.778503,321.432037 294.189484,323.236969 294.757538,328.842896 
	C295.523193,336.399078 293.778168,338.396179 286.097076,338.303589 
	C268.487915,338.091339 271.550415,339.058868 271.499695,323.640564 
	C271.475891,316.399689 271.525604,309.158539 271.502136,301.532410 
z"/>
<path fill="#000000" opacity="1.000000" stroke="none" 
	d="
M490.168884,325.888031 
	C488.910004,317.878479 490.822510,310.250305 489.785309,302.615753 
	C489.276154,298.867981 487.960052,297.139313 484.208984,297.299347 
	C482.546844,297.370239 480.877075,297.303314 479.211975,297.256592 
	C476.167633,297.171143 474.032166,295.678894 473.455383,292.699493 
	C472.563141,288.090759 473.687103,283.494385 474.141846,278.918945 
	C474.298370,277.343964 475.972595,276.548615 477.612030,276.633942 
	C484.402863,276.987335 491.094940,274.969849 498.005463,276.365295 
	C501.791718,277.129883 505.972961,276.614594 509.868622,275.997803 
	C515.280762,275.140961 520.465820,276.707977 525.770447,276.760284 
	C527.874329,276.781006 529.393433,278.138947 529.655762,280.050110 
	C530.264343,284.484802 530.604187,288.979919 529.732483,293.435974 
	C529.235474,295.976654 527.248230,296.889923 524.977844,297.130463 
	C522.997742,297.340302 520.985474,297.238953 518.988098,297.296173 
	C515.148193,297.406097 513.253357,299.215210 513.316162,303.233154 
	C513.446411,311.561371 513.382507,319.892609 513.394104,328.222626 
	C513.406067,336.819458 511.719055,338.479950 503.149506,338.307678 
	C502.150299,338.287567 501.152039,338.219757 500.152802,338.201294 
	C489.892029,338.011749 488.783752,336.700775 490.168884,325.888031 
z"/>
<path fill="#000000" opacity="1.000000" stroke="none" 
	d="
M335.634033,52.887203 
	C336.327393,46.183388 338.318115,40.415352 342.389191,35.536968 
	C343.688660,33.979813 345.039215,31.695633 347.691376,33.704098 
	C350.361053,35.725819 348.632568,37.486416 347.273834,39.162193 
	C343.817169,43.425591 342.075378,48.295250 341.651459,53.458649 
	C342.873932,55.011074 344.327087,54.560974 345.592682,54.767185 
	C358.746521,56.910374 366.427246,66.060562 367.301117,80.643013 
	C368.059845,93.303528 361.029968,103.609367 349.111969,107.308601 
	C328.265625,113.779106 309.535461,98.240005 312.616821,77.088524 
	C313.500275,71.024185 317.351166,66.973648 321.576813,63.119160 
	C322.965698,61.852261 324.378265,61.423992 325.906525,63.053902 
	C327.596741,64.856529 326.902740,66.100212 325.417419,67.684731 
	C315.733978,78.014977 316.191040,88.698814 326.393768,98.565346 
	C332.530457,104.499802 339.393433,104.047997 346.815521,101.816002 
	C354.001068,99.655151 358.926178,95.229500 360.446869,87.963768 
	C361.872101,81.153976 361.287445,74.251297 357.286194,68.234261 
	C353.696167,62.835644 348.455322,60.468769 342.019775,60.975140 
	C340.805756,62.863728 341.342712,64.739960 341.316864,66.528145 
	C341.286255,68.648552 341.214203,70.714668 338.446777,70.890594 
	C335.487457,71.078728 335.559326,68.629341 335.236877,66.751183 
	C334.466553,62.264614 334.840088,57.784481 335.634033,52.887203 
z"/>
<path fill="#000000" opacity="1.000000" stroke="none" 
	d="
M364.345276,388.916809 
	C359.729553,383.894775 358.510162,372.957550 361.704041,367.618835 
	C363.313995,364.927704 365.879852,363.748840 368.882599,364.054504 
	C372.229218,364.395142 375.071655,365.893402 375.782227,369.537140 
	C376.743347,374.465729 376.911591,379.521271 375.761871,384.389374 
	C374.576080,389.410370 370.426270,390.963654 364.345276,388.916809 
M372.650787,375.738342 
	C372.539398,374.584778 372.567200,373.396118 372.286835,372.285187 
	C371.749908,370.157745 371.063110,367.832184 368.308594,367.942017 
	C365.650208,368.048035 364.682556,370.292542 364.499084,372.477814 
	C364.236298,375.608063 364.257263,378.799011 364.554993,381.926147 
	C364.745148,383.923096 365.784241,385.984619 368.084869,386.225250 
	C370.530640,386.481110 371.334320,384.410858 372.085663,382.497162 
	C372.843536,380.566772 372.576080,378.563873 372.650787,375.738342 
z"/>
<path fill="#000000" opacity="1.000000" stroke="none" 
	d="
M354.585114,387.334961 
	C354.802979,389.861542 353.128845,389.931213 351.671265,389.968353 
	C348.187195,390.057129 344.692047,390.123993 341.214752,389.942810 
	C337.839569,389.766907 337.074097,388.027252 339.235413,385.407837 
	C341.769775,382.336273 344.572205,379.484924 347.086060,376.397766 
	C348.835938,374.248810 351.303345,371.668762 348.538849,369.021027 
	C345.785400,366.383911 343.439636,368.163239 341.786011,371.006958 
	C341.098633,372.189056 339.900635,372.524963 338.778381,371.877655 
	C337.512482,371.147430 337.939453,369.916443 338.339233,368.780212 
	C339.696625,364.922516 344.794281,362.936768 349.235016,364.557800 
	C353.307495,366.044373 354.916656,370.029053 353.099182,374.349457 
	C351.348969,378.509979 347.692200,381.343536 345.083862,385.159790 
	C348.161499,387.000427 351.678467,384.974640 354.585114,387.334961 
z"/>
<path fill="#000000" opacity="1.000000" stroke="none" 
	d="
M382.622498,369.546204 
	C385.832733,363.983612 390.808258,362.449280 395.151306,365.344482 
	C399.005066,367.913574 399.400116,372.263123 395.908020,377.148712 
	C393.924103,379.924316 391.522675,382.401489 389.226044,385.111267 
	C392.376587,387.215820 396.505890,384.416534 399.079742,387.647217 
	C396.919647,389.859741 385.916138,391.071075 383.795258,389.371979 
	C382.007812,387.940002 382.814453,386.398529 383.932190,385.065826 
	C385.745392,382.903931 387.711548,380.870880 389.545654,378.725739 
	C390.729401,377.341278 391.946320,375.945099 392.871368,374.389465 
	C394.048828,372.409363 394.463348,370.156525 392.332367,368.564972 
	C390.102112,366.899292 388.197784,368.124908 386.802917,370.013428 
	C385.233002,372.138977 383.865936,374.242828 382.622498,369.546204 
z"/>
<path fill="#000000" opacity="1.000000" stroke="none" 
	d="
M320.496002,380.713226 
	C316.956909,382.009674 313.509460,380.576569 310.071411,382.056885 
	C311.261322,389.577393 316.607697,384.432495 320.764862,385.247589 
	C319.108612,389.661713 315.832306,390.262421 312.466583,389.926483 
	C307.700684,389.450775 304.342316,384.390350 304.934601,379.216064 
	C305.611237,373.304901 309.519135,370.010620 315.030334,370.705688 
	C319.434113,371.261078 321.448425,374.628113 320.496002,380.713226 
M310.888397,377.557556 
	C312.747406,377.610413 314.789307,378.462280 316.211212,376.414124 
	C313.256470,373.266968 312.220703,373.420227 310.888397,377.557556 
z"/>
<path fill="#000000" opacity="1.000000" stroke="none" 
	d="
M268.882904,375.054810 
	C266.232269,378.617950 267.766785,382.399139 267.328613,385.949036 
	C267.152313,387.377350 267.609314,389.257782 265.482452,389.444305 
	C263.163300,389.647644 262.853973,387.845367 262.836334,386.084198 
	C262.797943,382.258118 262.856995,378.430969 262.814301,374.604980 
	C262.785156,371.992126 263.533966,370.488800 266.609253,370.956635 
	C270.030975,371.477173 274.248505,368.702698 276.779236,372.643677 
	C279.760834,377.286804 278.010712,382.688080 278.135864,387.768219 
	C278.163513,388.891235 277.240814,389.494934 276.063049,389.383911 
	C274.867157,389.271179 274.277161,388.399750 274.215149,387.371643 
	C274.035095,384.387085 274.017212,381.393158 273.900909,378.404297 
	C273.781342,375.332855 272.637360,373.554932 268.882904,375.054810 
z"/>
<path fill="#000000" opacity="1.000000" stroke="none" 
	d="
M232.879715,388.221069 
	C231.455536,386.767212 229.850220,385.408112 231.448990,383.791901 
	C232.897064,382.327972 234.095093,383.969543 235.208252,384.896301 
	C237.452179,386.764465 239.499786,387.029602 241.330597,384.432404 
	C240.379639,382.108856 238.371078,381.940796 236.727371,381.417450 
	C233.479904,380.383514 230.597046,378.977844 231.319595,374.968231 
	C232.022263,371.068939 235.323868,370.403320 238.611633,370.415649 
	C242.436981,370.429962 244.312988,372.368286 244.828156,376.455963 
	C241.631744,378.535187 239.162003,371.497009 235.742538,375.596588 
	C236.251236,378.276520 238.693909,378.043762 240.383224,378.661743 
	C243.683456,379.869019 246.078995,381.567902 245.295242,385.522888 
	C244.690674,388.573608 240.535904,390.739990 236.871704,389.921783 
	C235.601624,389.638214 234.421417,388.952209 232.879715,388.221069 
z"/>
<path fill="#000000" opacity="1.000000" stroke="none" 
	d="
M297.417236,383.077209 
	C300.538971,383.055328 300.211548,384.594391 299.275177,386.313995 
	C298.257446,388.183075 296.535400,389.146973 294.556885,389.724640 
	C289.876373,391.091278 285.650940,388.183990 284.443481,382.764160 
	C283.139343,376.910217 285.694794,371.634277 290.285767,370.702087 
	C295.767578,369.589020 299.031982,371.739838 299.763611,376.966614 
	C298.237946,378.189545 296.971039,377.619568 295.932007,376.296692 
	C293.970093,373.798798 291.564453,373.430664 289.679840,375.872894 
	C287.447174,378.766144 287.506714,382.219879 290.032135,385.010773 
	C292.111969,387.309296 294.199310,386.174072 295.942383,384.169891 
	C296.264893,383.799072 296.689941,383.517456 297.417236,383.077209 
z"/>
<path fill="#000000" opacity="1.000000" stroke="none" 
	d="
M411.668396,383.734436 
	C411.666595,379.125854 411.666595,374.981934 411.666595,371.076599 
	C409.873810,369.330200 408.230316,371.265533 406.694794,370.646729 
	C406.027191,366.959381 407.959473,365.662598 415.338867,365.156494 
	C416.645081,372.491760 415.902893,379.909241 415.792084,387.293579 
	C415.776459,388.333588 415.210693,389.217316 413.982880,389.296143 
	C412.508972,389.390839 411.882782,388.534912 411.788025,387.189911 
	C411.717957,386.195160 411.707306,385.196198 411.668396,383.734436 
z"/>
<path fill="#000000" opacity="1.000000" stroke="none" 
	d="
M379.550171,124.455978 
	C377.869354,122.829315 376.441864,121.455315 375.018829,120.076736 
	C373.640228,118.741173 373.981537,117.496948 375.143158,116.202911 
	C376.319550,114.892487 377.539093,114.473480 378.971619,115.741470 
	C380.578217,117.163528 382.193207,118.579124 383.740448,120.064339 
	C385.268463,121.531090 387.274139,122.927376 385.139618,125.392723 
	C383.005402,127.857674 381.407928,126.297112 379.550171,124.455978 
z"/>
<path fill="#000000" opacity="1.000000" stroke="none" 
	d="
M255.570724,371.722534 
	C255.956177,376.870514 256.107239,381.656281 256.179108,386.443268 
	C256.199371,387.792755 256.006866,389.256287 254.214340,389.340546 
	C252.153015,389.437439 251.833740,387.893402 251.816391,386.318268 
	C251.770874,382.181671 251.708832,378.042236 251.818359,373.908264 
	C251.874878,371.775238 252.782074,370.342224 255.570724,371.722534 
z"/>
<path fill="#000000" opacity="1.000000" stroke="none" 
	d="
M307.082703,119.009857 
	C309.945618,117.349396 316.443695,120.901764 316.300385,123.789330 
	C316.209900,125.612328 314.616089,127.573761 313.178101,126.832787 
	C310.204407,125.300430 306.346771,123.938843 307.082703,119.009857 
z"/>
<path fill="#000000" opacity="1.000000" stroke="none" 
	d="
M397.973969,102.676651 
	C395.410339,104.114212 394.296051,102.416283 393.380066,100.897614 
	C392.339752,99.172729 393.940430,98.232597 394.958710,97.218277 
	C395.775543,96.404602 396.698822,95.693825 397.481781,94.850914 
	C398.889313,93.335663 400.212036,93.270439 401.679688,94.782890 
	C403.060486,96.205872 403.338959,97.565048 401.792725,99.032211 
	C400.597015,100.166809 399.420319,101.321426 397.973969,102.676651 
z"/>
<path fill="#000000" opacity="1.000000" stroke="none" 
	d="
M407.251709,120.874588 
	C405.260956,118.992516 403.358826,117.241348 406.171051,115.060120 
	C409.200928,112.710091 410.467163,115.971519 412.183838,117.347771 
	C413.910858,118.732376 415.386719,120.377174 413.050659,122.611534 
	C410.305145,125.237549 409.105255,122.486412 407.251709,120.874588 
z"/>
<path fill="#000000" opacity="1.000000" stroke="none" 
	d="
M379.847595,79.065536 
	C380.119049,75.913757 381.974152,75.312698 384.074249,75.998543 
	C387.070190,76.976929 386.081268,79.742493 386.080444,81.901222 
	C386.079681,83.932083 384.711639,84.820312 382.797607,84.668068 
	C379.380219,84.396240 379.902649,81.754036 379.847595,79.065536 
z"/>
<path fill="#000000" opacity="1.000000" stroke="none" 
	d="
M348.448669,121.756714 
	C349.496399,125.047295 346.393738,129.489563 343.590698,128.916901 
	C341.558075,128.501648 339.485291,126.524361 340.935547,124.678177 
	C342.505310,122.679878 344.464233,119.383865 348.448669,121.756714 
z"/>
<path fill="#000000" opacity="1.000000" stroke="none" 
	d="
M274.952148,124.123154 
	C276.713745,127.762665 273.573730,128.187607 271.902130,129.382553 
	C270.486877,130.394241 269.457550,129.354767 268.653961,128.171814 
	C267.626526,126.659256 267.952759,125.369049 269.300812,124.259651 
	C271.015778,122.848297 272.732513,121.317566 274.952148,124.123154 
z"/>
<path fill="#000000" opacity="1.000000" stroke="none" 
	d="
M306.257690,214.984116 
	C307.340485,214.805817 307.998016,214.682800 308.644501,214.725983 
	C310.507507,214.850403 312.782410,214.138229 313.555328,216.774811 
	C313.941772,218.093079 313.923309,219.589478 312.540802,220.240662 
	C310.389343,221.254089 307.880676,221.453598 305.931213,220.149429 
	C304.023102,218.872925 304.295044,216.836639 306.257690,214.984116 
z"/>
</svg>